# xmcd CD database file
# Copyright (C) 1997 Ti Kan
#
# Track frame offsets:
#  150
#  2850
#  12950
#  24575
#  38000
#  48550
#  65525
#  76825
#  85875
#  97850
#  106512
#  117912
#  123450
#
# Disc length: 1804 seconds
#
# Revision: 1
# Processed by: cddbd v1.4b41PL1 Copyright (c) Steve Scherf et al.
# Submitted via: CDWizzard Release:4.32
#
DISCID=92070a0d
DTITLE=Michael Jackson And The Jackson 5 - Early Years 1967-1968
DYEAR=1900
DGENRE=
TTITLE0=Monologue
TTITLE1=We Don't Have To Be Over 21
TTITLE2=You've Changed
TTITLE3=Big Boy
TTITLE4=Michael The Lover
TTITLE5=Jam Session
TTITLE6=My Girl
TTITLE7=Soul Jerk
TTITLE8=Under The Boardwalk
TTITLE9=Saturday Night At The Movies
TTITLE10=Tracks Of My Tears
TTITLE11=Lonely Heart
TTITLE12=Stormy Monday
EXTD=
EXTT0=
EXTT1=
EXTT2=
EXTT3=
EXTT4=
EXTT5=
EXTT6=
EXTT7=
EXTT8=
EXTT9=
EXTT10=
EXTT11=
EXTT12=
PLAYORDER=
